<svg width="421" height="461" viewBox="0 0 421 461" fill="none" xmlns="http://www.w3.org/2000/svg">
<path d="M205.258 1.00039C191.625 1.07852 177.953 1.89883 164.164 3.57852C137.797 6.8207 111.664 12.2113 86.586 23.7348C46.7031 42.0551 18.4219 73.1488 10.2188 118.344C6.7422 137.407 3.9297 156.743 2.32814 176.196C-0.757796 213.969 1.15626 251.86 11.8594 289.086C20.2969 318.422 35.8438 344.789 63.0703 361.899C74.5938 369.125 89.7891 372.641 97.7188 376.313C99.9453 377.368 100.492 377.993 100.609 378.149C100.727 378.266 101.039 378.539 101 380.883C100.727 404.789 101 451.039 101 451.039L101.039 461H118.891L121.781 458.188C121.781 458.188 167.133 414.555 183.539 396.586C186.508 393.383 188.031 391.586 188.344 391.391C188.617 391.196 188.148 391.079 191.195 391C212.719 390.571 234.203 389.75 255.688 388.579C284.008 387.016 312.875 384.321 340.648 372.719C364.828 362.602 385.023 346.079 397.25 321.313C409.75 295.922 416.43 269.008 418.93 241.157C423.07 194.789 421.625 148.344 408.812 102.563C401.273 75.727 386.117 53.0316 362.875 37.016C335.062 17.8754 303.695 10.6879 272.992 6.11759C255.063 3.46134 237.016 1.70352 218.891 1.15664C214.359 1.03945 209.828 0.961335 205.258 1.00039ZM218.344 21.1566C235.57 21.6254 252.797 23.3051 270.063 25.8832C299.672 30.2973 327.602 37.016 351.547 53.5004C370.961 66.8598 383.07 84.9066 389.555 107.914C401.508 150.727 403.031 194.594 399.008 239.399C396.703 265.219 390.57 289.555 379.281 312.485C369.32 332.719 353.773 345.571 332.914 354.282C308.695 364.399 282.367 367.094 254.633 368.618C233.383 369.789 212.094 370.571 190.805 371C185.453 371.118 180.219 372.524 176.508 375.258C172.797 377.993 171.117 380.532 168.813 383.032C157.094 395.844 133.734 418.383 121 430.727C120.922 415.805 120.805 397.758 121 381.118C121.078 376 119.906 370.766 116.977 366.625C114.047 362.485 110.023 359.985 106.156 358.188C94.8672 352.954 80.1016 348.969 73.6953 344.946C51.3125 330.883 38.6172 309.789 31.0781 283.539C21.1953 249.204 19.3203 213.852 22.25 177.875C23.8125 159.204 26.5078 140.493 29.9063 121.938C37.0156 82.8363 59.3594 58.227 94.9063 41.8988C117.367 31.5863 141.352 26.5082 166.625 23.4223C183.852 21.3129 201.078 20.6488 218.344 21.1566ZM222.563 71.0004C214.32 71.0004 206.313 71.9379 198.539 73.6566C193.188 74.9066 189.789 80.2582 191 85.6488C192.211 91.0394 197.602 94.3988 202.992 93.1879C209.281 91.7426 215.844 91.0004 222.563 91.0004C271.391 91.0004 310.766 130.375 310.766 179.164C310.766 185.922 310.023 192.485 308.578 198.813C307.367 204.164 310.727 209.555 316.117 210.766C321.508 211.977 326.859 208.579 328.07 203.188C329.828 195.454 330.766 187.446 330.766 179.164C330.766 119.555 282.211 71.0004 222.563 71.0004ZM122.797 91.0395C121.156 90.9613 119.477 91.0785 117.719 91.4691C99.5547 95.4926 81.5078 108.657 81 132.172C81.5078 135.454 81.4688 138.969 82.6797 141.938C88.6172 156.469 93.7735 171.469 101.195 185.219C137.328 252.016 191.977 298.461 261.625 327.954C269.945 331.469 278.539 332.211 286.938 328.696C298.5 323.891 308.305 316.469 314.828 305.805C323.773 291.157 323.891 281 309.164 270.18C299.516 263.071 290.023 255.766 280.258 248.813C265.375 238.266 249.281 236.43 238.188 254.946C237.602 255.883 236.742 256.664 236 257.446C230.297 263.5 223.305 264.985 215.883 261.938C187.719 250.336 165.961 231.625 152.836 203.774C145.102 187.407 147.211 179.204 161.664 168.305C163.109 167.25 164.477 166.118 165.805 164.907C172.133 159.125 173.813 152.25 170.063 144.477C161.586 126.743 150.297 110.922 136 97.2895C132.133 93.6176 127.719 91.3129 122.797 91.0395ZM222.406 101C217.992 101 213.617 101.352 209.32 102.094C205.688 102.563 202.602 104.985 201.273 108.383C199.945 111.821 200.609 115.688 202.953 118.5C205.336 121.274 209.086 122.563 212.68 121.782C215.805 121.274 219.086 121 222.406 121C254.906 121 281 147.094 281 179.594C281 182.914 280.727 186.196 280.219 189.321C279.438 192.914 280.727 196.664 283.5 199.047C286.313 201.391 290.18 202.055 293.617 200.727C297.016 199.399 299.438 196.313 299.906 192.68C300.648 188.383 301 184.008 301 179.594C301 136.313 265.688 101 222.406 101ZM221 131C217.406 130.961 214.047 132.836 212.211 135.961C210.414 139.086 210.414 142.914 212.211 146.039C214.047 149.164 217.406 151.039 221 151C237.68 151 251 164.321 251 181C250.961 184.594 252.836 187.954 255.961 189.789C259.086 191.586 262.914 191.586 266.039 189.789C269.164 187.954 271.039 184.594 271 181C271 153.5 248.5 131 221 131Z" fill="#F2C311"/>
</svg>
