<svg width="440" height="401" viewBox="0 0 440 401" fill="none" xmlns="http://www.w3.org/2000/svg">
<path d="M413.769 0.863404C408.899 1.07708 404.158 2.43262 399.883 4.14465C395.651 5.84524 371.289 16.2435 335.312 31.6251C299.336 47.0067 252.569 67.0368 206.211 86.8986C113.493 126.622 22.3827 165.707 22.3827 165.707L23.0467 165.453C23.0467 165.453 17.5477 167.291 11.9725 171.176C9.18491 173.118 6.18589 175.626 3.73033 179.281C1.27477 182.937 -0.520402 188.118 0.156113 193.598C2.53234 212.845 22.4803 218.305 22.4803 218.305L22.5585 218.344L111.582 248.813C113.852 256.384 138.583 338.929 144.023 356.41C147.028 366.075 149.84 371.65 152.773 375.453C154.241 377.356 155.779 378.829 157.48 379.906C158.156 380.334 158.867 380.655 159.57 380.942C159.585 380.948 159.594 380.935 159.609 380.942C159.696 380.98 159.777 380.983 159.863 381.02L159.629 380.961C159.792 381.027 159.953 381.138 160.117 381.195C160.434 381.307 160.629 381.303 161.035 381.391C171.23 384.951 179.668 378.344 179.668 378.344L180.019 378.07L234.707 327.348L323.457 396.547L324.57 397.055C340.105 403.952 354.153 400.104 361.933 393.774C369.714 387.443 372.773 379.281 372.773 379.281L373.105 378.422L438.32 38.5197C439.989 30.9153 440.226 24.3421 438.652 18.4025C437.078 12.4628 433.255 7.29948 428.457 4.43762C423.659 1.57576 418.64 0.649728 413.769 0.863404ZM414.297 21.1954C416.275 21.1038 417.741 21.33 418.203 21.6056C418.665 21.8812 418.873 21.845 419.316 23.5197C419.76 25.1944 420 28.7217 418.789 34.2423L418.75 34.3595L353.906 372.289C353.753 372.629 352.401 375.755 349.316 378.266C346.169 380.827 342.669 382.826 333.379 378.93L236.328 303.246L233.594 301.098L233.535 301.156L204.512 279.379L367.617 87.4845C368.87 86.0138 369.671 84.2116 369.921 82.2956C370.172 80.3797 369.863 78.4321 369.03 76.6885C368.197 74.9448 366.878 73.4796 365.23 72.4701C363.582 71.4606 361.678 70.9501 359.746 71.0001C357.858 71.0492 356.023 71.6315 354.453 72.6798L118.437 230.024L29.2772 199.496C29.2772 199.496 20.4236 194.569 19.9999 191.137C19.9764 190.947 19.8718 191.119 20.3319 190.434C20.792 189.749 21.9484 188.592 23.3983 187.582C26.2981 185.562 29.6092 184.34 29.6092 184.34L29.9413 184.223L30.2733 184.086C30.2733 184.086 121.389 144.999 214.101 105.277C260.458 85.4167 307.216 65.4013 343.183 50.0236C379.142 34.6497 405.124 23.5838 407.324 22.6993C409.829 21.6964 412.319 21.287 414.297 21.1954ZM306.133 128.93L182.441 274.457L182.383 274.516C182.19 274.748 182.007 274.989 181.836 275.238C181.64 275.509 181.457 275.789 181.289 276.078C180.594 277.258 180.149 278.567 179.98 279.926C179.98 279.952 179.98 279.978 179.98 280.004L163.867 352.465C163.599 351.682 163.412 351.396 163.125 350.473V350.453C158.007 334.009 134.673 256.161 131.445 245.395L306.133 128.93ZM196.406 298.305L218.633 314.984L185.976 345.258L196.406 298.305Z" fill="#F2C311"/>
</svg>
